<?xml version="1.0" ?><svg style="enable-background:new 0 0 48 48.00004;" version="1.1" viewBox="0 0 48 48.00004" xml:space="preserve" xmlns="http://www.w3.org/2000/svg" xmlns:xlink="http://www.w3.org/1999/xlink"><g id="Padding__x26__Artboard"/><g id="Icons"><g/><polygon points="20.7882,25.72851 26.37017,25.72851 27.35431,20.94238 21.77191,20.94238  " style="fill:none;"/><path d="M35.41821,18.33691c-0.24561-0.30176-0.61035-0.46777-1.02734-0.46777H31.0766l0.91943-4.47107   c0.08643-0.41992-0.00635-0.83594-0.25488-1.14062c-0.24609-0.30078-0.61084-0.4668-1.02783-0.4668   c-0.82373,0-1.60107,0.64355-1.77002,1.4668l-0.24982,1.21472c-0.00818,0.03046-0.02136,0.05939-0.02771,0.09033l-0.67944,3.30664   h-5.57886l0.91943-4.47107c0.08643-0.41992-0.00635-0.83594-0.25488-1.14062c-0.24609-0.30078-0.61084-0.4668-1.02783-0.4668   c-0.82373,0-1.60107,0.64355-1.77002,1.4668l-0.26007,1.26471c-0.00317,0.01373-0.00952,0.02655-0.01239,0.04034l-0.67987,3.30664   h-3.6087c-0.82373,0-1.60156,0.64355-1.77051,1.46582c-0.08643,0.4209,0.00684,0.83594,0.25537,1.14062   c0.24609,0.30176,0.61084,0.4668,1.02734,0.4668h3.4649l-0.98413,4.78613h-3.6087c-0.82373,0-1.60156,0.64355-1.77051,1.4668   c-0.08643,0.41895,0.00635,0.83496,0.25439,1.13867c0.24609,0.30176,0.61133,0.46777,1.02832,0.46777h3.4649l-0.92438,4.49512   c-0.08643,0.41992,0.00635,0.83594,0.25488,1.14062c0.24561,0.30078,0.61084,0.4668,1.02734,0.4668   c0.82373,0,1.60156-0.64355,1.77051-1.4668l0.95331-4.63574h5.5824l-0.92438,4.49512   c-0.08643,0.41992,0.00635,0.83594,0.25488,1.14062c0.24609,0.30078,0.61084,0.4668,1.02783,0.4668   c0.82373,0,1.60107-0.64355,1.77002-1.4668l0.95331-4.63574h3.46661c0.82373,0,1.60156-0.64355,1.77051-1.46582   c0.08838-0.42871-0.00098-0.83398-0.25146-1.1416c-0.24512-0.30078-0.61133-0.46582-1.03076-0.46582h-3.32288l0.9837-4.78613   h3.46661c0.82373,0,1.60156-0.64355,1.77051-1.4668C35.75952,19.05664,35.66674,18.64062,35.41821,18.33691z M20.7882,25.72851   l0.9837-4.78613h5.5824l-0.98413,4.78613H20.7882z" style="fill:#303030;"/></g></svg>