<?xml version="1.0" ?><svg style="enable-background:new 0 0 48 48;" version="1.1" viewBox="0 0 48 48" xml:space="preserve" xmlns="http://www.w3.org/2000/svg" xmlns:xlink="http://www.w3.org/1999/xlink"><style type="text/css">
	.st0{display:none;}
	.st1{fill:#c5e2f8;stroke:#303030;stroke-width:0.7;stroke-linecap:round;stroke-linejoin:round;stroke-miterlimit:10;}
	.st2{fill:#303030;}
</style><g class="st0" id="Padding__x26__Artboard"/><g id="Icons"><g><path class="st1" d="M23.38316,25.49303c0,0,1.43041,0.32509,4.16118-0.84524c2.73078-1.17033,2.73078-3.05587,2.73078-3.05587    c-1.43041,0.58517-2.66576-0.32509-2.66576-0.32509l1.17033-0.58517c2.21063-0.45513,4.68133-2.73078,5.13647-3.12089    c0.45513-0.39011,1.10531-1.62546-0.19506-1.17033c-1.30037,0.45513-2.7958,0.13004-2.7958,0.13004l0.78022-0.65018    c3.83609-2.34067,4.48628-4.61631,3.83609-5.00643c-0.65018-0.39011-2.19054,1.00005-2.19054,1.00005    C16.22984,22.34827,14.37444,36.54581,14.37444,36.54581s-0.11924,0.71547,0.77509,0.65585S15.21704,31.57738,23.38316,25.49303z"/><path class="st1" d="M12.23807,24.22868v-5.18902c0-1.56036,1.26492-2.82528,2.82528-2.82528h5.15884"/><path class="st1" d="M34.00485,27.07533v5.15945c0,1.56036-1.26492,2.82528-2.82528,2.82528h-5.48363"/></g></g></svg>